<svg width="348" height="92" xmlns="http://www.w3.org/2000/svg" xmlns:xlink="http://www.w3.org/1999/xlink" xml:space="preserve" overflow="hidden"><defs><linearGradient x1="145.953" y1="202.94" x2="459.298" y2="202.94" gradientUnits="userSpaceOnUse" spreadMethod="pad" id="fill0"><stop offset="0" stop-color="#F5D0D0"/><stop offset="0.38" stop-color="#CC0000"/><stop offset="0.62" stop-color="#A00E24"/><stop offset="1" stop-color="#20124D"/></linearGradient></defs><g transform="translate(-779 -556)"><path d="M145.953 168.11 459.296 168.11 459.296 202.94 145.953 202.94Z" fill="url(#fill0)" fill-rule="evenodd" transform="matrix(1.01037 0 0 1 647.252 429.12)"/><path d="M145.953 168.11 459.296 168.11 459.296 202.94 145.953 202.94Z" stroke="#000000" stroke-width="0.990014" stroke-linejoin="round" stroke-miterlimit="10" fill="none" fill-rule="evenodd" transform="matrix(1.01037 0 0 1 647.252 429.12)"/><path d="M176.189 153.165 176.189 139.939 177.953 139.939 177.953 151.603 184.449 151.603 184.449 153.165 176.189 153.165ZM192.587 151.99C191.979 152.495 191.395 152.856 190.839 153.072 190.293 153.279 189.7 153.382 189.06 153.382 188.009 153.382 187.199 153.123 186.631 152.609 186.064 152.093 185.781 151.437 185.781 150.643 185.781 150.169 185.889 149.742 186.106 149.359 186.322 148.967 186.601 148.658 186.94 148.432 187.292 148.194 187.683 148.014 188.116 147.89 188.425 147.808 188.906 147.725 189.555 147.643 190.865 147.488 191.829 147.302 192.448 147.085 192.458 146.859 192.464 146.72 192.464 146.669 192.464 146.008 192.308 145.539 191.999 145.261 191.586 144.899 190.968 144.719 190.143 144.719 189.38 144.719 188.817 144.853 188.457 145.121 188.096 145.389 187.827 145.859 187.652 146.529L186.059 146.312C186.204 145.642 186.44 145.1 186.771 144.689 187.101 144.265 187.58 143.94 188.21 143.713 188.838 143.487 189.56 143.373 190.375 143.373 191.2 143.373 191.865 143.471 192.371 143.667 192.886 143.853 193.263 144.096 193.499 144.395 193.747 144.683 193.917 145.049 194.01 145.492 194.062 145.771 194.087 146.271 194.087 146.993L194.087 149.158C194.087 150.664 194.124 151.619 194.196 152.021 194.268 152.413 194.402 152.794 194.598 153.165L192.912 153.165C192.737 152.824 192.628 152.432 192.587 151.99ZM192.448 148.355C191.86 148.602 190.979 148.808 189.802 148.973 189.132 149.065 188.658 149.174 188.38 149.298 188.101 149.422 187.885 149.597 187.729 149.824 187.586 150.05 187.514 150.309 187.514 150.597 187.514 151.031 187.678 151.391 188.009 151.68 188.338 151.969 188.817 152.114 189.447 152.114 190.066 152.114 190.617 151.979 191.102 151.711 191.597 151.433 191.958 151.056 192.184 150.582 192.36 150.211 192.448 149.669 192.448 148.957L192.448 148.355ZM188.565 141.1C188.565 140.656 188.725 140.279 189.044 139.97 189.375 139.65 189.756 139.491 190.19 139.491 190.643 139.491 191.024 139.65 191.334 139.97 191.654 140.29 191.813 140.676 191.813 141.13 191.813 141.595 191.654 141.986 191.334 142.306 191.024 142.625 190.648 142.786 190.204 142.786 189.751 142.786 189.364 142.625 189.044 142.306 188.725 141.986 188.565 141.584 188.565 141.1ZM189.261 141.115C189.261 141.393 189.354 141.63 189.539 141.826 189.725 142.012 189.952 142.105 190.22 142.105 190.478 142.105 190.699 142.012 190.886 141.826 191.071 141.63 191.164 141.399 191.164 141.13 191.164 140.852 191.071 140.62 190.886 140.434 190.699 140.238 190.478 140.14 190.22 140.14 189.952 140.14 189.725 140.238 189.539 140.434 189.354 140.62 189.261 140.846 189.261 141.115ZM196.3 153.954 197.878 154.186C197.95 154.681 198.136 155.037 198.435 155.253 198.837 155.552 199.389 155.702 200.09 155.702 200.843 155.702 201.42 155.552 201.822 155.253 202.235 154.954 202.513 154.536 202.658 154.001 202.741 153.67 202.777 152.974 202.767 151.912 202.065 152.747 201.184 153.165 200.121 153.165 198.801 153.165 197.78 152.691 197.058 151.742 196.337 150.793 195.975 149.653 195.975 148.323 195.975 147.405 196.141 146.56 196.47 145.786 196.811 145.013 197.29 144.42 197.909 144.007 198.538 143.585 199.281 143.373 200.136 143.373 201.261 143.373 202.189 143.827 202.921 144.734L202.921 143.59 204.421 143.59 204.421 151.866C204.421 153.361 204.267 154.418 203.958 155.037 203.659 155.656 203.179 156.145 202.519 156.506 201.869 156.868 201.06 157.048 200.09 157.048 198.956 157.048 198.032 156.789 197.322 156.275 196.62 155.769 196.28 154.996 196.3 153.954ZM197.646 148.199C197.646 149.457 197.894 150.375 198.389 150.953 198.894 151.531 199.523 151.82 200.276 151.82 201.018 151.82 201.642 151.535 202.148 150.968 202.653 150.391 202.905 149.488 202.905 148.261 202.905 147.085 202.643 146.204 202.116 145.616 201.601 145.018 200.977 144.719 200.245 144.719 199.523 144.719 198.91 145.013 198.404 145.6 197.899 146.178 197.646 147.045 197.646 148.199Z" transform="matrix(1.01037 0 0 1 647.252 429.12)"/><path d="M277.794 153.165 277.794 139.939 280.423 139.939 283.548 149.298C283.837 150.174 284.049 150.83 284.182 151.262 284.337 150.778 284.57 150.071 284.878 149.144L288.049 139.939 290.401 139.939 290.401 153.165 288.715 153.165 288.715 142.105 284.878 153.165 283.3 153.165 279.48 141.904 279.48 153.165 277.794 153.165ZM299.583 150.087 301.254 150.288C300.986 151.267 300.496 152.03 299.784 152.577 299.073 153.114 298.16 153.382 297.047 153.382 295.644 153.382 294.53 152.953 293.705 152.098 292.891 151.232 292.483 150.02 292.483 148.462 292.483 146.844 292.896 145.59 293.72 144.703 294.556 143.816 295.634 143.373 296.954 143.373 298.233 143.373 299.274 143.811 300.078 144.689 300.893 145.555 301.301 146.776 301.301 148.355 301.301 148.458 301.301 148.602 301.301 148.787L294.154 148.787C294.215 149.84 294.515 150.648 295.051 151.216 295.587 151.773 296.253 152.051 297.047 152.051 297.645 152.051 298.156 151.897 298.578 151.587 299.001 151.267 299.336 150.767 299.583 150.087ZM294.247 147.457 299.599 147.457C299.527 146.653 299.321 146.05 298.98 145.647 298.464 145.018 297.794 144.703 296.969 144.703 296.227 144.703 295.597 144.956 295.082 145.462 294.577 145.957 294.298 146.622 294.247 147.457ZM309.5 153.165 309.5 151.958C308.902 152.908 308.009 153.382 306.824 153.382 306.061 153.382 305.359 153.17 304.72 152.747 304.081 152.325 303.586 151.736 303.235 150.984 302.884 150.231 302.709 149.364 302.709 148.385 302.709 147.426 302.869 146.56 303.189 145.786 303.509 145.002 303.983 144.404 304.611 143.992 305.251 143.58 305.968 143.373 306.762 143.373 307.339 143.373 307.85 143.497 308.293 143.744 308.747 143.982 309.113 144.296 309.391 144.689L309.391 139.939 311.016 139.939 311.016 153.165 309.5 153.165ZM304.38 148.385C304.38 149.612 304.637 150.531 305.153 151.138 305.669 151.747 306.277 152.051 306.979 152.051 307.69 152.051 308.293 151.762 308.788 151.185 309.283 150.597 309.531 149.71 309.531 148.525 309.531 147.215 309.278 146.256 308.772 145.647 308.268 145.028 307.644 144.719 306.901 144.719 306.189 144.719 305.592 145.013 305.106 145.6 304.622 146.188 304.38 147.117 304.38 148.385ZM320.128 150.087 321.798 150.288C321.53 151.267 321.041 152.03 320.329 152.577 319.617 153.114 318.704 153.382 317.59 153.382 316.189 153.382 315.075 152.953 314.249 152.098 313.434 151.232 313.027 150.02 313.027 148.462 313.027 146.844 313.44 145.59 314.265 144.703 315.101 143.816 316.178 143.373 317.498 143.373 318.777 143.373 319.818 143.811 320.623 144.689 321.438 145.555 321.845 146.776 321.845 148.355 321.845 148.458 321.845 148.602 321.845 148.787L314.698 148.787C314.76 149.84 315.059 150.648 315.596 151.216 316.131 151.773 316.796 152.051 317.59 152.051 318.188 152.051 318.699 151.897 319.122 151.587 319.545 151.267 319.88 150.767 320.128 150.087ZM314.791 147.457 320.143 147.457C320.07 146.653 319.865 146.05 319.524 145.647 319.009 145.018 318.338 144.703 317.513 144.703 316.771 144.703 316.142 144.956 315.626 145.462 315.12 145.957 314.842 146.622 314.791 147.457ZM323.795 153.165 323.795 139.939 325.419 139.939 325.419 153.165 323.795 153.165Z" transform="matrix(1.01037 0 0 1 647.252 429.12)"/><path d="M389.779 153.165 389.779 139.939 391.527 139.939 391.527 145.369 398.395 145.369 398.395 139.939 400.143 139.939 400.143 153.165 398.395 153.165 398.395 146.931 391.527 146.931 391.527 153.165 389.779 153.165ZM402.251 148.369C402.251 146.596 402.741 145.286 403.721 144.441 404.545 143.729 405.551 143.373 406.737 143.373 408.057 143.373 409.135 143.806 409.97 144.673 410.805 145.528 411.223 146.72 411.223 148.246 411.223 149.473 411.038 150.443 410.667 151.154 410.295 151.855 409.754 152.402 409.042 152.794 408.341 153.186 407.573 153.382 406.737 153.382 405.397 153.382 404.314 152.953 403.489 152.098 402.663 151.232 402.251 149.989 402.251 148.369ZM403.922 148.369C403.922 149.597 404.185 150.52 404.711 151.138 405.247 151.747 405.922 152.051 406.737 152.051 407.541 152.051 408.211 151.747 408.748 151.138 409.285 150.52 409.553 149.581 409.553 148.323 409.553 147.137 409.285 146.24 408.748 145.632 408.211 145.023 407.541 144.719 406.737 144.719 405.922 144.719 405.247 145.023 404.711 145.632 404.185 146.23 403.922 147.143 403.922 148.369ZM404.216 141.718 404.216 139.862 405.902 139.862 405.902 141.718 404.216 141.718ZM407.573 141.718 407.573 139.862 409.274 139.862 409.274 141.718 407.573 141.718ZM412.817 153.954 414.395 154.186C414.467 154.681 414.652 155.037 414.951 155.253 415.354 155.552 415.906 155.702 416.607 155.702 417.36 155.702 417.937 155.552 418.339 155.253 418.752 154.954 419.03 154.536 419.175 154.001 419.257 153.67 419.294 152.974 419.283 151.912 418.582 152.747 417.7 153.165 416.638 153.165 415.318 153.165 414.297 152.691 413.575 151.742 412.854 150.793 412.492 149.653 412.492 148.323 412.492 147.405 412.658 146.56 412.987 145.786 413.328 145.013 413.807 144.42 414.426 144.007 415.055 143.585 415.798 143.373 416.653 143.373 417.778 143.373 418.706 143.827 419.438 144.734L419.438 143.59 420.938 143.59 420.938 151.866C420.938 153.361 420.784 154.418 420.475 155.037 420.175 155.656 419.696 156.145 419.035 156.506 418.386 156.868 417.576 157.048 416.607 157.048 415.472 157.048 414.549 156.789 413.838 156.275 413.137 155.769 412.796 154.996 412.817 153.954ZM414.163 148.199C414.163 149.457 414.411 150.375 414.906 150.953 415.411 151.531 416.039 151.82 416.793 151.82 417.535 151.82 418.159 151.535 418.664 150.968 419.17 150.391 419.422 149.488 419.422 148.261 419.422 147.085 419.159 146.204 418.633 145.616 418.117 145.018 417.494 144.719 416.762 144.719 416.039 144.719 415.427 145.013 414.921 145.6 414.416 146.178 414.163 147.045 414.163 148.199Z" transform="matrix(1.01037 0 0 1 647.252 429.12)"/></g></svg>